<svg width="12" height="12" viewBox="0 0 12 12" fill="none" xmlns="http://www.w3.org/2000/svg">
<path fill-rule="evenodd" clip-rule="evenodd" d="M5.80591 0.88723C8.45584 0.88723 10.6113 3.04271 10.6113 5.69264C10.6113 6.94287 10.1315 8.08315 9.34638 8.93893L10.8913 10.4806C11.0359 10.6252 11.0364 10.8591 10.8918 11.0037C10.8198 11.0767 10.7245 11.1128 10.6298 11.1128C10.5355 11.1128 10.4408 11.0767 10.3682 11.0047L8.80466 9.44548C7.98214 10.1042 6.93925 10.4985 5.80591 10.4985C3.15597 10.4985 1 8.34258 1 5.69264C1 3.04271 3.15597 0.88723 5.80591 0.88723ZM5.80591 1.62744C3.56407 1.62744 1.74021 3.45081 1.74021 5.69264C1.74021 7.93448 3.56407 9.75834 5.80591 9.75834C8.04725 9.75834 9.87111 7.93448 9.87111 5.69264C9.87111 3.45081 8.04725 1.62744 5.80591 1.62744Z" fill="#C4C4C4" stroke="#C4C4C400" stroke-width="0.5"/>
</svg>
